<svg xmlns="http://www.w3.org/2000/svg" viewBox="0 0 217.82 106.08"><defs><style>.cls-1{fill:#f1cc30;}.cls-2{fill:#e3811e;}</style></defs><title>logo</title><g id="OBJECTS"><path class="cls-1" d="M212.06,189.89a7.41,7.41,0,0,0-7.41-7.41H133.89a7.41,7.41,0,0,0,0,14.81h70.76A7.41,7.41,0,0,0,212.06,189.89Z" transform="translate(-102.21 -156.98)"/><path class="cls-1" d="M133.89,171.79h13.17a7.41,7.41,0,1,0,0-14.81H133.89a7.41,7.41,0,1,0,0,14.81Z" transform="translate(-102.21 -156.98)"/><path class="cls-1" d="M109.62,182.49a7.41,7.41,0,1,0,5.24,2.17A7.45,7.45,0,0,0,109.62,182.49Z" transform="translate(-102.21 -156.98)"/><path class="cls-1" d="M176.68,215.6a7.41,7.41,0,0,0-7.41-7.41H150.35a7.41,7.41,0,0,0,0,14.81h18.93A7.41,7.41,0,0,0,176.68,215.6Z" transform="translate(-102.21 -156.98)"/><path class="cls-2" d="M304.86,172.15A51.69,51.69,0,0,0,268.22,157H169.28a7.41,7.41,0,1,0,0,14.81h98.95a37,37,0,0,1,37,37h0a37,37,0,0,1-37,37h-34a36.79,36.79,0,0,1-21.56-6.92,7.39,7.39,0,0,0-6.79-1c-2.83,1-5.78,2.12-8.63,3.24l3.64-5.68a7.37,7.37,0,0,0,1.21-8.27l-.07-.14c0-.07-.08-.14-.12-.21h0a36.7,36.7,0,0,1-4.26-12.37A7.41,7.41,0,1,0,183,216.73a51.49,51.49,0,0,0,3.87,13.14l-12.65,19.78h0a8.79,8.79,0,0,0-1.4,4.73,8.66,8.66,0,0,0,2.71,6.28,8.82,8.82,0,0,0,6.07,2.41,9.05,9.05,0,0,0,3.19-.59,9.33,9.33,0,0,0,1.52-.75c1.24-.54,4.55-2,8.74-3.72,3.71-1.54,8.11-3.31,12.32-4.88a51.63,51.63,0,0,0,26.84,7.49h34A51.82,51.82,0,0,0,320,208.79h0A51.69,51.69,0,0,0,304.86,172.15Z" transform="translate(-102.21 -156.98)"/><circle class="cls-2" cx="120.65" cy="53.04" r="8.18"/><circle class="cls-2" cx="148.42" cy="53.04" r="8.18"/><circle class="cls-2" cx="176.19" cy="53.04" r="8.18"/></g></svg>